<svg version="1.1" id="Layer_1" xmlns="http://www.w3.org/2000/svg" xmlns:xlink="http://www.w3.org/1999/xlink" x="0px" y="0px"
	 width="100%" viewBox="0 0 268 228" enable-background="new 0 0 268 228" xml:space="preserve">
<path fill="#FEFEFF" opacity="1.000000" stroke="none" 
	d="
M192.000000,229.000000 
	C128.000000,229.000000 64.500015,229.000000 1.000017,229.000000 
	C1.000011,153.000015 1.000011,77.000031 1.000006,1.000037 
	C90.333305,1.000025 179.666611,1.000025 268.999939,1.000013 
	C268.999939,76.999962 268.999939,152.999924 268.999969,228.999939 
	C243.500000,229.000000 218.000000,229.000000 192.000000,229.000000 
M52.950432,178.498962 
	C52.953659,182.997391 52.889492,187.497070 52.974285,191.993958 
	C53.145454,201.072052 58.959015,207.114212 68.001320,207.128006 
	C116.817627,207.202545 165.634186,207.206009 214.450470,207.122253 
	C223.243439,207.107162 229.151810,201.123611 229.177826,192.270599 
	C229.269897,160.948502 229.251663,129.625809 229.163620,98.303650 
	C229.139267,89.643379 225.522263,82.377029 218.948059,76.893921 
	C196.690796,58.330582 174.323990,39.897968 151.926437,21.503799 
	C144.813538,15.662276 137.241302,15.761543 130.112015,21.635586 
	C108.514862,39.430141 87.046638,57.382065 65.367195,75.075432 
	C56.716499,82.135574 52.757275,90.858353 52.871082,102.026291 
	C53.127430,127.181641 52.950813,152.341400 52.950432,178.498962 
z"/>
<path fill="#4182B7" opacity="1.000000" stroke="none" 
	d="
M52.950409,177.999161 
	C52.950813,152.341400 53.127430,127.181641 52.871082,102.026291 
	C52.757275,90.858353 56.716499,82.135574 65.367195,75.075432 
	C87.046638,57.382065 108.514862,39.430141 130.112015,21.635586 
	C137.241302,15.761543 144.813538,15.662276 151.926437,21.503799 
	C174.323990,39.897968 196.690796,58.330582 218.948059,76.893921 
	C225.522263,82.377029 229.139267,89.643379 229.163620,98.303650 
	C229.251663,129.625809 229.269897,160.948502 229.177826,192.270599 
	C229.151810,201.123611 223.243439,207.107162 214.450470,207.122253 
	C165.634186,207.206009 116.817627,207.202545 68.001320,207.128006 
	C58.959015,207.114212 53.145454,201.072052 52.974285,191.993958 
	C52.889492,187.497070 52.953659,182.997391 52.950409,177.999161 
M175.499985,193.810120 
	C187.164520,193.810059 198.831665,193.669785 210.492126,193.887604 
	C214.458008,193.961685 216.037994,193.032227 216.011658,188.681900 
	C215.835098,159.521606 215.892838,130.359695 215.937637,101.198425 
	C215.947540,94.753212 213.527542,89.764664 208.451263,85.665741 
	C196.008560,75.618645 183.784241,65.301338 171.454575,55.113934 
	C161.591934,46.964924 151.703552,38.847057 141.831039,30.719023 
	C138.594376,32.932140 135.570023,34.682003 132.907242,36.871578 
	C113.219994,53.060139 93.662842,69.407326 73.928513,85.537918 
	C68.590660,89.901001 66.186264,95.162689 66.212387,102.001495 
	C66.321884,130.662521 66.350609,159.324814 66.162415,187.985031 
	C66.132553,192.531708 67.329414,193.942810 72.019249,193.915833 
	C106.178566,193.719376 140.339523,193.810013 175.499985,193.810120 
z"/>
<path fill="#FCFDFE" opacity="1.000000" stroke="none" 
	d="
M174.999969,193.810028 
	C140.339523,193.810013 106.178566,193.719376 72.019249,193.915833 
	C67.329414,193.942810 66.132553,192.531708 66.162415,187.985031 
	C66.350609,159.324814 66.321884,130.662521 66.212387,102.001495 
	C66.186264,95.162689 68.590660,89.901001 73.928513,85.537918 
	C93.662842,69.407326 113.219994,53.060139 132.907242,36.871578 
	C135.570023,34.682003 138.594376,32.932140 141.831039,30.719023 
	C151.703552,38.847057 161.591934,46.964924 171.454575,55.113934 
	C183.784241,65.301338 196.008560,75.618645 208.451263,85.665741 
	C213.527542,89.764664 215.947540,94.753212 215.937637,101.198425 
	C215.892838,130.359695 215.835098,159.521606 216.011658,188.681900 
	C216.037994,193.032227 214.458008,193.961685 210.492126,193.887604 
	C198.831665,193.669785 187.164520,193.810059 174.999969,193.810028 
M163.555664,86.261925 
	C157.922943,74.202850 147.441483,69.095139 134.472244,72.089333 
	C124.051697,74.495117 117.058182,84.236336 116.993416,96.472664 
	C116.967155,101.435478 116.989082,106.398537 116.989082,111.200562 
	C107.103874,114.193100 103.703690,118.781349 103.681152,128.713486 
	C103.660736,137.708176 103.617500,146.703522 103.697472,155.697571 
	C103.779037,164.871765 108.828568,169.983475 117.921860,170.024414 
	C133.412506,170.094177 148.903946,170.095261 164.394577,170.023483 
	C173.051788,169.983353 178.559143,164.751373 178.743256,156.130280 
	C178.953033,146.307220 178.914291,136.474045 178.744202,126.649399 
	C178.632248,120.183655 174.377731,113.610329 168.978027,112.437599 
	C165.274063,111.633148 165.235764,109.725716 165.131073,106.842033 
	C164.890778,100.221909 164.314270,93.613991 163.555664,86.261925 
z"/>
<path fill="#4282B8" opacity="1.000000" stroke="none" 
	d="
M163.714966,86.631516 
	C164.314270,93.613991 164.890778,100.221909 165.131073,106.842033 
	C165.235764,109.725716 165.274063,111.633148 168.978027,112.437599 
	C174.377731,113.610329 178.632248,120.183655 178.744202,126.649399 
	C178.914291,136.474045 178.953033,146.307220 178.743256,156.130280 
	C178.559143,164.751373 173.051788,169.983353 164.394577,170.023483 
	C148.903946,170.095261 133.412506,170.094177 117.921860,170.024414 
	C108.828568,169.983475 103.779037,164.871765 103.697472,155.697571 
	C103.617500,146.703522 103.660736,137.708176 103.681152,128.713486 
	C103.703690,118.781349 107.103874,114.193100 116.989082,111.200562 
	C116.989082,106.398537 116.967155,101.435478 116.993416,96.472664 
	C117.058182,84.236336 124.051697,74.495117 134.472244,72.089333 
	C147.441483,69.095139 157.922943,74.202850 163.714966,86.631516 
M122.678947,156.737015 
	C136.726624,156.737015 150.774307,156.737015 164.838379,156.737015 
	C164.838379,146.181778 164.838379,136.460876 164.838379,126.518280 
	C148.824631,126.518280 133.159531,126.518280 117.244621,126.518280 
	C117.244621,136.584808 117.244621,146.319000 117.244621,156.433899 
	C118.841553,156.541702 120.285477,156.639175 122.678947,156.737015 
M139.525543,111.839203 
	C142.515594,111.837494 145.524857,112.029594 148.485992,111.736099 
	C149.626907,111.623016 151.584991,110.416931 151.593552,109.690231 
	C151.663879,103.735542 151.863388,97.703606 151.011993,91.842072 
	C150.347549,87.267784 145.507675,84.550789 140.825821,84.890579 
	C135.344925,85.288376 131.259048,88.244125 130.946823,92.953178 
	C130.544037,99.028099 130.848694,105.149933 130.848694,111.839050 
	C133.667877,111.839050 136.112030,111.839050 139.525543,111.839203 
z"/>
<path fill="#FAFCFD" opacity="1.000000" stroke="none" 
	d="
M122.204170,156.736832 
	C120.285477,156.639175 118.841553,156.541702 117.244621,156.433899 
	C117.244621,146.319000 117.244621,136.584808 117.244621,126.518280 
	C133.159531,126.518280 148.824631,126.518280 164.838379,126.518280 
	C164.838379,136.460876 164.838379,146.181778 164.838379,156.737015 
	C150.774307,156.737015 136.726624,156.737015 122.204170,156.736832 
z"/>
<path fill="#F9FBFD" opacity="1.000000" stroke="none" 
	d="
M139.040863,111.839127 
	C136.112030,111.839050 133.667877,111.839050 130.848694,111.839050 
	C130.848694,105.149933 130.544037,99.028099 130.946823,92.953178 
	C131.259048,88.244125 135.344925,85.288376 140.825821,84.890579 
	C145.507675,84.550789 150.347549,87.267784 151.011993,91.842072 
	C151.863388,97.703606 151.663879,103.735542 151.593552,109.690231 
	C151.584991,110.416931 149.626907,111.623016 148.485992,111.736099 
	C145.524857,112.029594 142.515594,111.837494 139.040863,111.839127 
z"/>
</svg>